<svg width="35" height="19" viewBox="0 0 35 19" fill="none" xmlns="http://www.w3.org/2000/svg">
<path d="M4.375 0.75C3.21468 0.75 2.10188 1.21094 1.28141 2.03141C0.460936 2.85188 0 3.96468 0 5.125L0 13.875C0 15.0353 0.460936 16.1481 1.28141 16.9686C2.10188 17.7891 3.21468 18.25 4.375 18.25H26.25C27.4103 18.25 28.5231 17.7891 29.3436 16.9686C30.1641 16.1481 30.625 15.0353 30.625 13.875V5.125C30.625 3.96468 30.1641 2.85188 29.3436 2.03141C28.5231 1.21094 27.4103 0.75 26.25 0.75H4.375ZM26.25 2.9375C26.8302 2.9375 27.3866 3.16797 27.7968 3.5782C28.207 3.98844 28.4375 4.54484 28.4375 5.125V13.875C28.4375 14.4552 28.207 15.0116 27.7968 15.4218C27.3866 15.832 26.8302 16.0625 26.25 16.0625H4.375C3.79484 16.0625 3.23844 15.832 2.8282 15.4218C2.41797 15.0116 2.1875 14.4552 2.1875 13.875V5.125C2.1875 4.54484 2.41797 3.98844 2.8282 3.5782C3.23844 3.16797 3.79484 2.9375 4.375 2.9375H26.25ZM35 9.5C35 10.3702 34.6543 11.2048 34.0389 11.8202C33.4236 12.4355 32.589 12.7812 31.7188 12.7812V6.21875C32.589 6.21875 33.4236 6.56445 34.0389 7.17981C34.6543 7.79516 35 8.62976 35 9.5Z" fill="#404041"/>
</svg>
