<svg width="25" height="27" viewBox="0 0 25 27" fill="none" xmlns="http://www.w3.org/2000/svg">
<path d="M23.8314 6.54375L23.846 6.52917L18.421 1.10417L16.8752 2.65L19.9522 5.72708C18.5814 6.25208 17.6043 7.56458 17.6043 9.125C17.6043 9.60378 17.6986 10.0779 17.8819 10.5202C18.0651 10.9625 18.3336 11.3644 18.6722 11.703C19.3559 12.3867 20.2832 12.7708 21.2502 12.7708C21.7752 12.7708 22.2564 12.6542 22.7085 12.4646V22.9792C22.7085 23.7812 22.0522 24.4375 21.2502 24.4375C20.4481 24.4375 19.7918 23.7812 19.7918 22.9792V16.4167C19.7918 14.8125 18.4793 13.5 16.8752 13.5H15.4168V3.29167C15.4168 1.6875 14.1043 0.375 12.5002 0.375H3.75016C2.146 0.375 0.833496 1.6875 0.833496 3.29167V26.625H15.4168V15.6875H17.6043V22.9792C17.6043 23.9461 17.9884 24.8734 18.6722 25.5572C19.3559 26.2409 20.2832 26.625 21.2502 26.625C22.2171 26.625 23.1444 26.2409 23.8282 25.5572C24.5119 24.8734 24.896 23.9461 24.896 22.9792V9.125C24.896 8.11875 24.4877 7.2 23.8314 6.54375ZM21.2502 10.5833C20.4481 10.5833 19.7918 9.92708 19.7918 9.125C19.7918 8.32292 20.4481 7.66667 21.2502 7.66667C22.0522 7.66667 22.7085 8.32292 22.7085 9.125C22.7085 9.92708 22.0522 10.5833 21.2502 10.5833ZM6.66683 22.25V15.6875H3.75016L9.5835 4.75V12.0417H12.5002L6.66683 22.25Z" fill="#404041"/>
</svg>
