<svg width="32" height="32" viewBox="0 0 32 32" fill="none" xmlns="http://www.w3.org/2000/svg">
<path d="M4.83323 2.37505H13.5832V5.29172H4.83323V2.37505ZM0.458231 8.20839H7.7499V11.1251H0.458231V8.20839ZM3.3749 25.7084H10.6666V28.6251H3.3749V25.7084ZM19.0228 13.473C20.1166 13.8084 20.9186 14.6105 21.3124 15.6021L27.5395 5.23339C27.9512 4.54612 28.101 3.7333 27.9612 2.94442C27.8214 2.15555 27.4015 1.44367 26.7786 0.939733C26.1558 0.435794 25.372 0.173682 24.5713 0.201607C23.7706 0.229532 23.0069 0.545615 22.4207 1.09172L17.4186 5.77297C16.8353 6.31255 16.4999 7.08547 16.4999 7.88755V13.6188C17.0249 13.4001 17.9291 13.1376 19.0228 13.473ZM14.4728 15.8938C14.7061 15.1355 15.1728 14.4938 15.7707 14.0417H3.78323C2.98142 14.0407 2.20628 14.3296 1.60072 14.8552C0.995158 15.3807 0.600001 16.1075 0.4881 16.9014C0.376199 17.6954 0.555099 18.503 0.991819 19.1755C1.42854 19.8479 2.09363 20.3398 2.86448 20.5605L9.44156 22.4417C10.2145 22.6605 11.0457 22.5584 11.7457 22.1355L15.6686 19.7876C15.1024 19.3328 14.6857 18.7186 14.4725 18.0244C14.2593 17.3302 14.2594 16.588 14.4728 15.8938ZM31.3895 25.1396L28.0645 19.1605C27.8678 18.8142 27.604 18.5107 27.2885 18.2678C26.9729 18.0248 26.612 17.8474 26.227 17.7459L21.5895 16.5792C21.6332 17.0459 21.5895 17.5417 21.4436 18.023C21.2202 18.7724 20.7597 19.4292 20.1312 19.8946C19.5028 20.36 18.7403 20.609 17.9582 20.6042C17.0686 20.6042 16.5145 20.2834 16.4999 20.2834V28.6251C14.8957 28.6251 13.5832 29.9376 13.5832 31.5417H22.3332C22.3332 29.9376 21.0207 28.6251 19.4166 28.6251V22.3834L26.1395 29.1063C27.4374 30.4042 29.5374 30.4042 30.8353 29.1063C31.8853 28.0563 32.1186 26.4376 31.3895 25.1396Z" fill="#404041"/>
</svg>
